<svg id="Ebene_1" data-name="Ebene 1" xmlns="http://www.w3.org/2000/svg" viewBox="0 0 715.14 191.75"><defs><style>.cls-1{fill:none;}.cls-2{fill:#fff;}</style></defs><g id="Wortmarke_Version_A" data-name="Wortmarke Version A"><polyline class="cls-1" points="715.14 0 715.14 191.27 0 191.27"/><polygon class="cls-2" points="364.1 126.35 375.73 126.35 391.75 176.9 391.93 176.9 408.3 126.35 419.66 126.35 397.83 190.23 385.4 190.23 364.1 126.35"/><path class="cls-2" d="M471.67,168.47c0,9.84,7.25,13.69,16.19,13.69,9.85,0,13.52-4.83,13.52-9.67s-2.69-6.88-5.28-7.86c-4.48-1.71-10.29-2.87-19.06-5.29-10.91-3-14.13-9.56-14.13-16.19,0-12.79,11.8-18.78,23.34-18.78,13.33,0,24.52,7.06,24.52,20.39H499.58c-.53-8.23-6.08-11.27-13.77-11.27-5.19,0-11.72,1.88-11.72,8.32,0,4.48,3,7,7.61,8.23,1,.27,15.11,3.94,18.42,4.92a16.92,16.92,0,0,1,12.44,16.29c0,14.31-12.7,20-25.41,20-14.58,0-26.39-7-26.66-22.82h11.18Z" transform="translate(0 0.47)"/><rect class="cls-2" x="529.71" y="126.35" width="11.19" height="63.88"/><path class="cls-2" d="M616.71,157.82c0,18.25-11.46,33.46-30.6,33.46s-30.6-15.21-30.6-33.46,11.45-33.46,30.6-33.46,30.6,15.21,30.6,33.46m-50,0c0,12.26,5.72,24.33,19.41,24.33s19.41-12.07,19.41-24.33-5.72-24.33-19.41-24.33-19.41,12.08-19.41,24.33" transform="translate(0 0.47)"/><polygon class="cls-2" points="364.34 50.45 380.08 50.45 397.71 100.46 397.89 100.46 415.06 50.45 430.63 50.45 430.63 114.33 419.99 114.33 419.99 65.03 419.81 65.03 402.09 114.33 392.87 114.33 375.16 65.03 374.98 65.03 374.98 114.33 364.34 114.33 364.34 50.45"/><path class="cls-2" d="M461.14,50H473l24.6,63.88h-12l-6-16.92h-25.5l-6,16.92H436.62ZM457.2,88.45h19.5L467.13,61h-.27Z" transform="translate(0 0.47)"/><polygon class="cls-2" points="489.41 50.45 541.12 50.45 541.12 60.11 520.82 60.11 520.82 114.33 509.63 114.33 509.63 60.11 489.41 60.11 489.41 50.45"/><path class="cls-2" d="M548.56,50h30.5c14,0,21.11,6.44,21.11,17.26,0,12.26-8.5,15.39-10.56,16.11v.18c3.86.54,9.49,3.4,9.49,13.5,0,7.43,1.07,14.23,3.48,16.83h-12c-1.7-2.78-1.7-6.27-1.7-9.4,0-11.72-2.42-16.91-12.7-16.91H559.74v26.31H548.55V50Zm11.18,29.07h18.33c7.07,0,10.92-3.48,10.92-10.2,0-8.13-5.28-9.75-11.1-9.75H559.74Z" transform="translate(0 0.47)"/><rect class="cls-2" x="611.53" y="50.45" width="11.18" height="63.88"/><polygon class="cls-2" points="630.86 50.45 644.19 50.45 658.68 72.99 673.8 50.45 686.32 50.45 665.21 81.22 687.85 114.33 674.25 114.33 658.32 89.9 642.13 114.33 629.34 114.33 651.97 81.22 630.86 50.45"/><polygon class="cls-2" points="633.38 126.35 645.19 126.35 674.35 173.41 674.53 173.41 674.53 126.35 685.18 126.35 685.18 190.23 673.37 190.23 644.29 143.26 644.02 143.26 644.02 190.23 633.38 190.23 633.38 126.35"/><rect class="cls-2" x="432.59" y="126.35" width="11.19" height="63.88"/><path class="cls-2" d="M712.43,60.52A11.23,11.23,0,1,1,701.2,49.29a11.08,11.08,0,0,1,11.23,11.23m-20.71,0a9.48,9.48,0,1,0,9.48-9.63,9.39,9.39,0,0,0-9.48,9.63m7,6.49h-1.6V54h5c2.93,0,4.23,1.27,4.23,3.59a3.49,3.49,0,0,1-3.26,3.62L706.93,67h-1.87l-3.65-5.77h-2.69V67Zm2.12-7.12c2,0,3.89-.07,3.89-2.27,0-1.81-1.51-2.23-3.08-2.23h-2.93v4.5Z" transform="translate(0 0.47)"/></g><g id="Bildmarke"><polygon class="cls-2" points="180.89 50.44 157.27 50.44 168.95 91.93 180.89 50.44"/><path class="cls-2" d="M45.16,99.47q-9.81,0-17.83,7.69t-8,27.68v54.61H62.36V122.09q0-10.52-2.5-15.37Q55.91,99.48,45.16,99.47Zm72.46,4.18a20.68,20.68,0,0,0-12.68-3.86,25.23,25.23,0,0,0-17.73,6.85q-7.44,6.85-7.44,22.89v59.92h43.05v-71.6Q122.82,107.51,117.62,103.65Zm78-53.68-19.58,54.67H161.23L141.8,50H1.9V86.18H19V101A57.66,57.66,0,0,1,30.14,89.84,33.39,33.39,0,0,1,49.54,84Q61.83,84,69.33,90A31.87,31.87,0,0,1,77,100.27,37.54,37.54,0,0,1,90.67,88a38.11,38.11,0,0,1,17.64-4Q129.24,84,136.79,99q4.07,8.12,4.07,21.82v68.61H351V50Z" transform="translate(0 0.47)"/><polygon class="cls-2" points="168.84 71.89 168.84 71.89 168.84 71.89 168.84 71.89 168.84 71.89 168.84 71.89 168.84 71.89 168.84 71.89"/></g><path class="cls-2" d="M15,1.34h5.52L35.14,38.87H29.62l-4.1-11.3H9.64l-4.2,11.3H.28Zm-3.73,22H23.94L17.68,5.86h-.1Z" transform="translate(0 0.47)"/><path class="cls-2" d="M55.47,1.34h4.47v14h.11c1.47-3,4.94-4.31,8.67-4.31,8.36,0,12.51,6.62,12.51,14.29S77.13,39.5,68.82,39.5c-2.78,0-6.78-1-8.77-4.25h-.11v3.62H55.47ZM68.09,15c-6,0-8.31,5.15-8.31,10.25,0,5.36,2.42,10.3,8.57,10.3s8.15-5.2,8.15-10.51C76.5,20,73.87,15,68.09,15Z" transform="translate(0 0.47)"/><path class="cls-2" d="M87.64,11.7h4.2v5.73H92c2.15-4.37,5.15-6.52,10-6.36V15.8c-7.2,0-9.83,4.1-9.83,11V38.87H87.64Z" transform="translate(0 0.47)"/><path class="cls-2" d="M130.69,38.77a6.07,6.07,0,0,1-3.21.73c-2.31,0-3.78-1.26-3.78-4.2a12.07,12.07,0,0,1-9.57,4.2c-4.94,0-9-2.2-9-7.62,0-6.15,4.57-7.46,9.2-8.36,4.94-.94,9.15-.63,9.15-4,0-3.89-3.21-4.52-6-4.52-3.78,0-6.57,1.15-6.78,5.15h-4.47c.27-6.73,5.47-9.09,11.51-9.09,4.89,0,10.2,1.1,10.2,7.46v14c0,2.11,0,3.05,1.42,3.05a3.84,3.84,0,0,0,1.37-.26Zm-7.26-13.93c-1.73,1.26-5.09,1.31-8.09,1.84s-5.47,1.57-5.47,4.89c0,2.94,2.53,4,5.26,4,5.89,0,8.3-3.68,8.3-6.15Z" transform="translate(0 0.47)"/><path class="cls-2" d="M136.15,11.7h4.21V16h.1a9.44,9.44,0,0,1,8.83-4.94c7.15,0,9.36,4.1,9.36,9.93V38.87h-4.47V20.47A5.11,5.11,0,0,0,148.66,15c-5.41,0-8,3.63-8,8.51V38.87h-4.47Z" transform="translate(0 0.47)"/><path class="cls-2" d="M191,38.87h-4.46V35.19h-.11c-1.47,3-4.94,4.31-8.67,4.31-8.36,0-12.51-6.62-12.51-14.29s4.1-14.14,12.4-14.14c2.79,0,6.78,1,8.78,4.25h.11v-14H191Zm-12.61-3.31c6,0,8.3-5.15,8.3-10.25,0-5.36-2.41-10.3-8.56-10.3S170,20.21,170,25.52C170,30.62,172.58,35.56,178.36,35.56Z" transform="translate(0 0.47)"/><path class="cls-2" d="M226.82,11.07c8.62,0,13.19,6.25,13.19,14.24S235.44,39.5,226.82,39.5s-13.2-6.25-13.2-14.19S218.2,11.07,226.82,11.07Zm0,24.49c4.68,0,8.46-3.68,8.46-10.25S231.5,15,226.82,15s-8.46,3.68-8.46,10.3S222.14,35.56,226.82,35.56Z" transform="translate(0 0.47)"/><path class="cls-2" d="M248.42,15.64h-4.57V11.7h4.57v-4c0-4.42,2.63-6.73,7.52-6.73a11.1,11.1,0,0,1,2.89.42V5.23a8.52,8.52,0,0,0-2.53-.37c-2.15,0-3.41.69-3.41,3.05V11.7h5.25v3.94h-5.25V38.87h-4.47Z" transform="translate(0 0.47)"/><path class="cls-2" d="M280.11,1.34h13.62c3.31,0,7.67,0,9.93,1.37a8.91,8.91,0,0,1,4.42,7.83A8.66,8.66,0,0,1,302.51,19v.11c4.62.94,7.14,4.41,7.14,9,0,5.52-3.94,10.77-11.4,10.77H280.11Zm5,16.14h10c5.68,0,8-2.05,8-6,0-5.21-3.68-5.94-8-5.94h-10Zm0,17.19h12.51c4.31,0,7-2.63,7-6.73,0-4.89-3.94-6.26-8.15-6.26h-11.4Z" transform="translate(0 0.47)"/><path class="cls-2" d="M340.77,38.77a6.07,6.07,0,0,1-3.21.73c-2.31,0-3.78-1.26-3.78-4.2a12.06,12.06,0,0,1-9.57,4.2c-4.94,0-9-2.2-9-7.62,0-6.15,4.58-7.46,9.2-8.36,4.94-.94,9.15-.63,9.15-4,0-3.89-3.21-4.52-6.05-4.52-3.78,0-6.57,1.15-6.78,5.15h-4.47c.27-6.73,5.47-9.09,11.52-9.09,4.88,0,10.19,1.1,10.19,7.46v14c0,2.11,0,3.05,1.42,3.05a3.84,3.84,0,0,0,1.37-.26Zm-7.25-13.93c-1.74,1.26-5.1,1.31-8.1,1.84S320,28.25,320,31.57c0,2.94,2.53,4,5.26,4,5.89,0,8.31-3.68,8.31-6.15Z" transform="translate(0 0.47)"/><path class="cls-2" d="M346.5,1.34H351V38.87H346.5Z" transform="translate(0 0.47)"/><path class="cls-2" d="M359.48,1.34h4.46V38.87h-4.46Z" transform="translate(0 0.47)"/><path class="cls-2" d="M394.69,38.87h-4.2V34.56h-.11a9.44,9.44,0,0,1-8.83,4.94c-7.15,0-9.35-4.1-9.35-9.93V11.7h4.46V30.09a5.12,5.12,0,0,0,5.52,5.47c5.42,0,8.05-3.63,8.05-8.51V11.7h4.46Z" transform="translate(0 0.47)"/><path class="cls-2" d="M404.57,15.64H400V11.7h4.57v-4c0-4.42,2.63-6.73,7.52-6.73a11.1,11.1,0,0,1,2.89.42V5.23a8.45,8.45,0,0,0-2.52-.37c-2.16,0-3.42.69-3.42,3.05V11.7h5.26v3.94H409V38.87h-4.47Z" transform="translate(0 0.47)"/><path class="cls-2" d="M421.44,15.64h-4.57V11.7h4.57v-4c0-4.42,2.63-6.73,7.52-6.73a11.1,11.1,0,0,1,2.89.42V5.23a8.45,8.45,0,0,0-2.52-.37c-2.16,0-3.42.69-3.42,3.05V11.7h5.26v3.94h-5.26V38.87h-4.47Z" transform="translate(0 0.47)"/></svg>